HIERARCHY
ROOT SpineBase
{
  OFFSET 0.000000 0.000000 0.000000
  CHANNELS 6 Xposition Yposition Zposition Zrotation Xrotation Yrotation
  JOINT SpineMid
  {
    OFFSET -0.000000 29.719195 0.000000
    CHANNELS 3 Zrotation Xrotation Yrotation
    JOINT SpineShoulder
    {
      OFFSET -0.170753 22.054097 -0.840802
      CHANNELS 3 Zrotation Xrotation Yrotation
      JOINT Neck
      {
        OFFSET -0.113803 7.294885 -0.618608
        CHANNELS 3 Zrotation Xrotation Yrotation
        JOINT Head
        {
          OFFSET -2.035086 13.670325 -0.552532
          CHANNELS 3 Zrotation Xrotation Yrotation
          End Site
          {
            OFFSET 0 0 0
          }
        }
      }
      JOINT ShoulderLeft
      {
        OFFSET -17.811889 -4.955427 7.416703
        CHANNELS 3 Zrotation Xrotation Yrotation
        JOINT ElbowLeft
        {
          OFFSET -0.684220 -24.126634 0.337745
          CHANNELS 3 Zrotation Xrotation Yrotation
          JOINT WristLeft
          {
            OFFSET -0.668076 -19.781765 -5.547118
            CHANNELS 3 Zrotation Xrotation Yrotation
            JOINT HandLeft
            {
              OFFSET 1.074357 -3.902288 -1.363675
              CHANNELS 3 Zrotation Xrotation Yrotation
              JOINT HandTipLeft
              {
                OFFSET 0.259474 -6.048347 -2.029925
                CHANNELS 3 Zrotation Xrotation Yrotation
                End Site
                {
                  OFFSET 0 0 0
                }
              }
              JOINT ThumbLeft
              {
                OFFSET -3.830590 -1.164064 -2.110960
                CHANNELS 3 Zrotation Xrotation Yrotation
                End Site
                {
                  OFFSET 0 0 0
                }
              }
            }
          }
        }
      }
      JOINT ShoulderRight
      {
        OFFSET 14.257720 -3.035077 -7.271586
        CHANNELS 3 Zrotation Xrotation Yrotation
        JOINT ElbowRight
        {
          OFFSET 4.032553 -22.425467 -1.357769
          CHANNELS 3 Zrotation Xrotation Yrotation
          JOINT WristRight
          {
            OFFSET -1.044230 -19.770011 -6.279850
            CHANNELS 3 Zrotation Xrotation Yrotation
            JOINT HandRight
            {
              OFFSET -2.224625 -6.782812 -1.776636
              CHANNELS 3 Zrotation Xrotation Yrotation
              JOINT HandTipRight
              {
                OFFSET 0.344242 -8.229113 1.101079
                CHANNELS 3 Zrotation Xrotation Yrotation
                End Site
                {
                  OFFSET 0 0 0
                }
              }
              JOINT ThumbRight
              {
                OFFSET 1.180694 0.057618 -3.224400
                CHANNELS 3 Zrotation Xrotation Yrotation
                End Site
                {
                  OFFSET 0 0 0
                }
              }
            }
          }
        }
      }
    }
  }
  JOINT HipLeft
  {
    OFFSET -6.669863 0.104861 -0.926987
    CHANNELS 3 Zrotation Xrotation Yrotation
    JOINT KneeLeft
    {
      OFFSET 0.033286 -26.446048 2.604093
      CHANNELS 3 Zrotation Xrotation Yrotation
      JOINT AnkleLeft
      {
        OFFSET 2.210384 -30.516242 5.765304
        CHANNELS 3 Zrotation Xrotation Yrotation
        JOINT FootLeft
        {
          OFFSET -3.205164 -7.134229 -5.221032
          CHANNELS 3 Zrotation Xrotation Yrotation
          End Site
          {
            OFFSET 0 0 0
          }
        }
      }
    }
  }
  JOINT HipRight
  {
    OFFSET 6.417101 1.641868 -6.008170
    CHANNELS 3 Zrotation Xrotation Yrotation
    JOINT KneeRight
    {
      OFFSET 9.710003 -26.690704 -4.035060
      CHANNELS 3 Zrotation Xrotation Yrotation
      JOINT AnkleRight
      {
        OFFSET 10.158811 -27.881502 2.866267
        CHANNELS 3 Zrotation Xrotation Yrotation
        JOINT FootRight
        {
          OFFSET -4.202134 -3.433170 -12.375647
          CHANNELS 3 Zrotation Xrotation Yrotation
          End Site
          {
            OFFSET 0 0 0
          }
        }
      }
    }
  }
}
MOTION
Frames: 12
Frame Time: 0.033333
12.001939 65.850649 361.457417 0.000000 0.000000 21.219346 -0.000000 0.000000 -21.219346 -0.000000 0.000000 0.000000 -0.000000 0.000000 0.000000 0.000000 0.000000 0.000000 -0.000000 0.000000 0.000000 -0.000000 0.000000 0.000000 -0.000000 0.000000 0.000000 -0.000000 0.000000 0.000000 0.000000 0.000000 0.000000 0.000000 0.000000 0.000000 -0.000000 0.000000 0.000000 -0.000000 0.000000 0.000000 -0.000000 0.000000 0.000000 -0.000000 0.000000 0.000000 0.000000 0.000000 0.000000 0.000000 0.000000 0.000000 -0.000000 0.000000 -21.219346 -0.000000 0.000000 0.000000 -0.000000 0.000000 0.000000 0.000000 0.000000 0.000000 -0.000000 0.000000 -21.219346 -0.000000 0.000000 0.000000 -0.000000 0.000000 0.000000 0.000000 0.000000 0.000000
11.924155 65.811139 361.373810 -0.030198 0.130479 21.638058 -0.020043 -0.132419 -21.638047 -0.000000 0.000000 0.000000 -0.000000 0.000000 0.000000 0.000000 0.000000 0.000000 -0.000000 0.000000 0.000000 0.774511 0.103908 -0.221394 -2.426573 0.148383 0.871812 3.469989 -1.231627 -1.279324 0.000000 0.000000 0.000000 0.000000 0.000000 0.000000 1.046461 0.708796 0.057508 -1.468228 0.365167 0.005561 0.702889 1.399437 -0.953979 -4.361135 1.561180 0.467192 0.000000 0.000000 0.000000 0.000000 0.000000 0.000000 -0.020043 -0.132419 -21.638047 -0.000000 0.000000 0.000000 -0.450645 -5.171357 2.718896 0.000000 0.000000 0.000000 -0.020043 -0.132419 -21.638047 -0.000000 0.000000 0.000000 -0.000000 0.000000 0.000000 0.000000 0.000000 0.000000
11.849676 65.774472 361.285929 -0.044787 0.252751 22.010834 -0.053205 -0.251114 -22.010852 -0.000000 0.000000 0.000000 -0.000000 0.000000 0.000000 0.000000 0.000000 0.000000 -0.000000 0.000000 0.000000 1.360014 0.270700 -0.393638 -4.120263 0.545311 1.594173 6.471777 -3.009958 -2.411585 0.000000 0.000000 0.000000 0.000000 0.000000 0.000000 1.954890 1.349751 0.100941 -2.709092 0.581621 -0.014179 1.259320 2.395854 -1.663431 -8.529131 3.739700 0.751376 0.000000 0.000000 0.000000 0.000000 0.000000 0.000000 -0.053205 -0.251114 -22.010852 -0.000000 0.000000 0.000000 -0.993745 -8.103698 4.518051 0.000000 0.000000 0.000000 -0.053205 -0.251114 -22.010852 -0.000000 0.000000 0.000000 -0.000000 0.000000 0.000000 0.000000 0.000000 0.000000
11.778503 65.740648 361.193774 -0.043804 0.366900 22.338156 -0.098933 -0.356015 -22.338323 -0.000000 0.000000 0.000000 -0.000000 0.000000 0.000000 0.000000 0.000000 0.000000 0.722640 -0.617524 0.031527 1.045356 1.118266 -0.562680 -5.155448 1.196487 2.189730 8.998063 -5.266976 -3.346761 0.000000 0.000000 0.000000 0.000000 0.000000 0.000000 2.717221 1.917242 0.134061 -3.714425 0.654707 -0.054146 1.640093 2.961346 -2.119249 -12.243156 6.411410 0.989181 0.000000 0.000000 0.000000 0.000000 0.000000 0.000000 -0.098933 -0.356015 -22.338323 -0.000000 0.000000 0.000000 -1.805322 -8.676381 5.345010 0.000000 0.000000 0.000000 0.474552 -1.037423 -22.600179 -0.845832 -0.370090 -0.017808 0.054284 0.778748 0.289109 0.000000 0.000000 0.000000
11.710634 65.709667 361.097345 -0.027272 0.472998 22.620476 -0.156756 -0.447101 -22.620975 -0.000000 0.000000 0.000000 0.948330 0.109113 0.053607 0.000000 0.000000 0.000000 0.937648 -0.636644 0.036397 1.066887 1.433590 -0.650152 -5.578620 2.112073 2.672380 11.020831 -7.932839 -4.044562 0.000000 0.000000 0.000000 0.000000 0.000000 0.000000 3.327050 2.406722 0.160397 -4.478552 0.589331 -0.109186 1.824291 3.066904 -2.312030 -15.264302 9.433967 1.271606 0.000000 0.000000 0.000000 0.000000 0.000000 0.000000 -0.156756 -0.447101 -22.620975 0.735128 -0.538708 0.103182 -3.680167 -6.307785 5.152688 0.000000 0.000000 0.000000 0.510523 -1.362203 -22.969903 -1.017647 -0.385208 0.007034 -0.180257 0.941612 1.206062 0.000000 0.000000 0.000000
11.646070 65.681529 360.996642 0.004804 0.571110 22.858207 -0.226282 -0.524393 -22.859266 -0.235162 0.897810 -0.004096 1.497842 -0.710002 0.104304 0.000000 0.000000 0.000000 1.375520 -1.461803 0.063231 0.934029 1.725669 -0.686851 -5.412362 3.306900 3.048014 12.502994 -10.941871 -4.479899 0.000000 0.000000 0.000000 0.000000 0.000000 0.000000 4.012067 1.919355 0.250044 -4.997954 0.389793 -0.174344 1.799291 2.676240 -2.230984 -17.397493 12.687760 1.626698 0.000000 0.000000 0.000000 0.000000 0.000000 0.000000 0.686706 -0.534332 -22.767151 -0.147122 -0.998873 0.006631 -5.005095 -1.977481 4.204025 0.000000 0.000000 0.000000 0.484798 -1.672739 -23.295530 -1.132307 -0.350937 0.044766 -0.242239 1.089036 1.423792 0.000000 0.000000 0.000000
11.607454 65.653861 360.881666 0.080611 0.663700 23.008235 -0.073442 0.214280 -23.005813 -0.161008 0.190589 -0.008233 1.902129 -0.704066 0.145585 0.000000 0.000000 0.000000 1.546309 -1.354015 0.060844 0.619626 2.112065 -0.664930 -5.444651 4.997894 3.723875 15.817874 -16.256260 -5.058710 0.000000 0.000000 0.000000 0.000000 0.000000 0.000000 4.114568 1.978318 0.275748 -4.863962 0.177670 -0.282088 1.243950 1.067596 -1.552430 -17.617779 17.887890 2.241374 0.000000 0.000000 0.000000 0.000000 0.000000 0.000000 0.703792 -0.638947 -22.902572 -0.524180 -1.071549 -0.060365 -6.049426 5.555001 2.089070 0.000000 0.000000 0.000000 0.363358 -1.973534 -23.540682 -1.229629 -0.233066 0.103229 -0.272355 1.178599 1.632984 0.000000 0.000000 0.000000
11.551499 65.630873 360.760143 0.142239 0.749548 23.173888 -0.098517 0.228711 -23.170345 -0.188055 0.179355 -0.008866 2.290933 -0.620572 0.189598 0.000000 0.000000 0.000000 1.696645 -1.121545 0.053918 0.065366 2.297721 -0.556424 -3.513305 7.788784 3.936142 14.475450 -19.782029 -4.704615 0.000000 0.000000 0.000000 0.000000 0.000000 0.000000 4.239099 2.211699 0.315297 -4.855621 -0.537376 -0.371494 0.925445 -0.886442 -0.727378 -16.676590 19.998054 2.074463 0.000000 0.000000 0.000000 0.000000 0.000000 0.000000 0.732407 -0.756917 -23.053025 -0.947380 -1.160956 -0.138853 -6.420342 14.252830 -0.575032 0.000000 0.000000 0.000000 0.232810 -2.242947 -23.790667 -1.285448 -0.151553 0.144149 -0.301792 1.290714 1.806048 0.000000 0.000000 0.000000
11.486099 65.612685 360.649030 0.199824 0.824023 23.313269 -0.117964 0.256108 -23.308814 -0.222555 0.188238 -0.010034 2.725456 -0.630640 0.228196 0.000000 0.000000 0.000000 1.839126 -0.866099 0.045418 -0.715365 2.382560 -0.372821 -0.211757 10.409985 3.510783 12.495249 -21.790825 -4.221764 0.000000 0.000000 0.000000 0.000000 0.000000 0.000000 4.286284 2.292719 0.344643 -4.756382 -1.189466 -0.430353 0.428573 -3.020491 0.216673 -15.167428 22.467780 1.756436 0.000000 0.000000 0.000000 0.000000 0.000000 0.000000 0.729301 -0.841395 -23.182420 -1.423599 -1.256670 -0.233215 -6.807655 25.579080 -3.694429 0.000000 0.000000 0.000000 0.039645 -2.440793 -23.993196 -1.152722 -0.071461 0.178394 -0.425321 1.380776 1.937770 0.000000 0.000000 0.000000
11.412013 65.601410 360.548569 0.270251 0.876317 23.421663 -0.125296 0.285406 -23.415641 -0.248421 0.197244 -0.009497 3.041549 -0.595511 0.262754 0.000000 0.000000 0.000000 2.008912 -0.575455 0.034166 -1.307538 2.452459 -0.267242 1.527364 12.079582 3.399820 10.828826 -23.557688 -4.034836 0.000000 0.000000 0.000000 0.000000 0.000000 0.000000 4.238533 2.320882 0.364732 -4.638250 -1.775660 -0.461994 -0.159661 -4.800336 1.059742 -13.982982 26.104771 1.632390 0.000000 0.000000 0.000000 0.000000 0.000000 0.000000 0.727066 -0.906355 -23.280607 -1.640397 -1.383833 -0.277378 -6.435981 28.530274 -4.772381 0.000000 0.000000 0.000000 -0.245532 -2.637561 -24.178697 -0.881908 0.099776 0.239326 -0.602385 1.444708 1.998004 0.000000 0.000000 0.000000
11.334188 65.581927 360.471422 0.375070 0.908923 23.465066 -0.121342 0.314708 -23.456191 -0.270662 0.202000 -0.006796 3.166690 -0.528761 0.285583 0.000000 0.000000 0.000000 2.181231 -0.324241 0.021224 -1.850500 2.465000 -0.192335 3.560727 11.578788 2.600903 9.469541 -23.187650 -3.659503 0.000000 0.000000 0.000000 0.000000 0.000000 0.000000 4.079943 2.171755 0.355082 -4.608598 -1.931506 -0.420323 -0.501631 -6.510576 1.743603 -13.003443 28.349460 1.296475 0.000000 0.000000 0.000000 0.000000 0.000000 0.000000 0.710012 -0.938295 -23.313897 -1.833517 -1.511142 -0.315988 -6.894295 33.672735 -5.840323 0.000000 0.000000 0.000000 -0.572171 -2.722390 -24.269854 -0.484391 0.258912 0.291277 -0.844058 1.457058 1.994935 0.000000 0.000000 0.000000
11.254920 65.566709 360.410812 0.483290 0.955007 23.533542 -0.111146 0.327823 -23.521341 -0.281312 0.202510 -0.002407 3.217314 -0.567909 0.289732 0.000000 0.000000 0.000000 2.283982 -0.088158 0.004417 -1.939216 2.344551 -0.232712 3.996517 10.938732 2.319043 10.641730 -20.637421 -3.675166 0.000000 0.000000 0.000000 0.000000 0.000000 0.000000 3.865473 1.855259 0.319409 -4.671863 -1.815900 -0.312247 -1.220165 -7.765666 2.294452 -12.594741 30.893144 1.169673 0.000000 0.000000 0.000000 0.000000 0.000000 0.000000 0.696343 -1.003340 -23.369771 -1.945752 -1.609482 -0.334648 -6.484861 34.280282 -6.338768 0.000000 0.000000 0.000000 -0.874323 -2.721441 -24.347532 -0.028351 0.311177 0.305574 -1.123667 1.487891 1.930358 0.000000 0.000000 0.000000
